 http://img833.imageshack.us/img833/6493/ve91611hshrese.jpg

Country.......: USA
Genre.........: Sci-Fi
Date release..: 2011 [World]
Director......: Matt Codd
Writers.......: Rafael Jordan
Duration......: 86 min.
More..........: http://www.imdb.com/title/tt1697075
Trailer.......:

Pilot :
A section of the super volcano under Yellowstone erupts after thousands of years, putting millions at risk

Cats :
Richard Burgi   	 ...  	Charlie Young
Juliet Aubrey 	... 	Kate
Peter Vollebregt 	... 	George Howe
MyAnna Buring 	... 	Claire
Sarah Brown 	... 	Blind Woman
Alex Wyndham 	... 	Josh
Trevor White 	... 	Simon
Mallorie Woodruff 	... 	Jennie
Daniel S. Ehrlich 	... 	Jake
Owen Davis 	... 	Michael
Lincoln Frager 	... 	Helo Tech

Data Technical :
!!! SAMPLE !!!
Audio.....: English
Subtitles.: None
Format                           : AVI
Format/Info                      : Audio Video Interleave
File size                        : 699 MiB
Duration                         : 1h 25mn
Overall bit rate                 : 1 138 Kbps
Writing application              : VirtualDubMod 1.5.4.1 (build 2178/release)
Writing library                  : VirtualDubMod build 2178/release
Video
ID                               : 0
Format                           : MPEG-4 Visual
Format profile                   : Advanced Simple@L5
Format settings, BVOP            : Yes
Format settings, QPel            : No
Format settings, GMC             : No warppoints
Format settings, Matrix          : Custom
Codec ID                         : XVID
Codec ID/Hint                    : XviD
Duration                         : 1h 25mn
Bit rate                         : 995 Kbps
Width                            : 608 pixels
Height                           : 352 pixels
Display aspect ratio             : 16:9
Frame rate                       : 29.970 fps
Color space                      : YUV
Chroma subsampling               : 4:2:0
Bit depth                        : 8 bits
Scan type                        : Progressive
Bits/(Pixel*Frame)               : 0.155
Stream size                      : 611 MiB (87%)
Writing library                  : XviD 1.2.1 (UTC 2008-12-04)
Audio
ID                               : 1
Format                           : MPEG Audio
Format version                   : Version 1
Format profile                   : Layer 3
Mode                             : Joint stereo
Codec ID                         : 55
Codec ID/Hint                    : MP3
Duration                         : 1h 25mn
Bit rate mode                    : Variable
Bit rate                         : 128 Kbps
Channel(s)                       : 2 channels
Sampling rate                    : 48.0 KHz
Video delay                      : 24ms
Stream size                      : 79.1 MiB (11%)
Alignment                        : Split accross interleaves
Interleave, duration             : 24 ms (0.72 video frame)
Interleave, preload duration     : 512 ms
Writing library                  : LAME3.98r
Encoding settings                : -m j -V 4 -q 2 -lowpass 17 --abr 128

Screen : 
http://img718.imageshack.us/img718/1428/supereruption2011s1.jpg 
http://img577.imageshack.us/img577/5425/supereruption2011s2.jpg 
http://img39.imageshack.us/img39/7114/supereruption2011s3.jpg 
http://img30.imageshack.us/img30/5455/supereruption2011s4.jpg 
http://img694.imageshack.us/img694/9475/supereruption2011s5.jpg